# xmcd
#
# Track frame offsets: 
#        150
#        14630
#        28692
#        40482
#        59435
#        72025
#        92465
#        106927
#        124352
#        140340
#        153937
#        169895
#        184387
#        203810
#        215882
#        229560
#
# Disc length: 3280 seconds
#
# Revision: 3
# Processed by: cddbd v1.5.2PL0 Copyright (c) Steve Scherf et al.
# Submitted via: ExactAudioCopy v0.99pb5
#
DISCID=e70cce10
DTITLE=Saffire - Hot Flash
DYEAR=1991
DGENRE=Blues
TTITLE0=Two In The Bush Is Better Than One In The Hand
TTITLE1=Sloppy Drunk
TTITLE2=One Good Man
TTITLE3=Dirty Sheets
TTITLE4=Tom Cat Blues
TTITLE5=Learn To Settle For Less
TTITLE6=You'll Never Get Me Out Of Your Mind
TTITLE7=(Mr. Insurance Man) Take Out That Thing
TTITLE8=Hopin' It'll Be Alright
TTITLE9=A Little Bit Of Your Loving Goes A Very Long Way
TTITLE10=Shopping For Love
TTITLE11=Elevator Man
TTITLE12=Torch Song #1 - Torch Song #2
TTITLE13=Why Don't You Do Right?
TTITLE14=Prove Me Wrong
TTITLE15=(No Need) Pissin' On A Skunk
EXTD=ID3G:   0
EXTT0=
EXTT1=
EXTT2=
EXTT3=
EXTT4=
EXTT5=
EXTT6=
EXTT7=
EXTT8=
EXTT9=
EXTT10=
EXTT11=
EXTT12=
EXTT13=
EXTT14=
EXTT15=
PLAYORDER=
